<svg width="24" height="24" viewBox="0 0 24 24" fill="none" xmlns="http://www.w3.org/2000/svg">
<path opacity="0.4" d="M12 22C17.5228 22 22 17.5228 22 12C22 6.47715 17.5228 2 12 2C6.47715 2 2 6.47715 2 12C2 17.5228 6.47715 22 12 22Z" fill="#00A991"/>
<path d="M6.99975 14.7498C6.80775 14.7498 6.61575 14.6768 6.46975 14.5298C6.17675 14.2368 6.17675 13.7618 6.46975 13.4688L9.26075 10.6778C9.94275 9.99576 11.0527 9.99578 11.7347 10.6768L13.3238 12.2617C13.4218 12.3587 13.5797 12.3587 13.6777 12.2617L16.4707 9.46877C16.7637 9.17577 17.2387 9.17577 17.5317 9.46877C17.8247 9.76177 17.8247 10.2368 17.5317 10.5298L14.7387 13.3228C14.0577 14.0048 12.9467 14.0058 12.2647 13.3238L10.6757 11.7388C10.5777 11.6408 10.4198 11.6408 10.3218 11.7388L7.53075 14.5298C7.38375 14.6768 7.19175 14.7498 6.99975 14.7498Z" fill="#00A991"/>
</svg>
