<svg width="24" height="24" viewBox="0 0 24 24" fill="none" xmlns="http://www.w3.org/2000/svg">
<g clip-path="url(#clip0_6730_4749)">
<path d="M22.215 17.2617H1.78474C0.986643 17.2617 0.358752 18.0083 0.462393 18.7996C0.516079 19.2069 0.609413 19.608 0.741064 19.9972C1.00324 20.7748 1.73575 21.2962 2.55635 21.2962H21.4433C22.2639 21.2962 22.9963 20.7749 23.2585 19.9973C23.3902 19.6081 23.4836 19.207 23.5373 18.7997C23.641 18.0083 23.0131 17.2617 22.215 17.2617Z" fill="#FFC365"/>
<path d="M4.28791 19.9972C4.15626 19.608 4.06292 19.2069 4.00924 18.7996C3.90555 18.0083 4.53349 17.2617 5.33158 17.2617H1.78474C0.986643 17.2617 0.358752 18.0083 0.462393 18.7996C0.516079 19.2069 0.609413 19.608 0.741064 19.9972C1.00324 20.7748 1.73575 21.2962 2.55635 21.2962H6.10319C5.28255 21.2962 4.55008 20.7749 4.28791 19.9972Z" fill="#FFB640"/>
<path d="M21.9773 12.1602H15.5469C15.8688 12.1602 16.1321 12.431 16.1321 12.7619V13.511C16.1321 13.842 15.8688 14.1128 15.5469 14.1128H21.9773C22.2992 14.1128 22.5626 13.842 22.5626 13.511V12.7619C22.5626 12.4309 22.2992 12.1602 21.9773 12.1602Z" fill="#FF636E"/>
<path d="M18.3489 13.511V12.7619C18.3489 12.431 18.6123 12.1602 18.9342 12.1602H15.5469C15.8688 12.1602 16.1321 12.431 16.1321 12.7619V13.511C16.1321 13.842 15.8688 14.1128 15.5469 14.1128H18.9342C18.6123 14.1128 18.3489 13.842 18.3489 13.511Z" fill="#FF4654"/>
<path d="M15.6913 12.1602H8.00516C7.68327 12.1602 7.41992 12.431 7.41992 12.7619V13.511C7.41992 13.842 7.68327 14.1128 8.00516 14.1128H15.6913C16.0132 14.1128 16.2766 13.842 16.2766 13.511V12.7619C16.2765 12.4309 16.0132 12.1602 15.6913 12.1602Z" fill="#FF636E"/>
<path d="M10.9668 13.511V12.7619C10.9668 12.431 11.2301 12.1602 11.552 12.1602H8.00516C7.68327 12.1602 7.41992 12.431 7.41992 12.7619V13.511C7.41992 13.842 7.68327 14.1128 8.00516 14.1128H11.552C11.2301 14.1128 10.9668 13.842 10.9668 13.511Z" fill="#FF4654"/>
<path d="M7.56522 13.511V12.7619C7.56522 12.431 7.82856 12.1602 8.15045 12.1602H1.72C1.39811 12.1602 1.13477 12.431 1.13477 12.7619V13.511C1.13477 13.842 1.39811 14.1128 1.72 14.1128H8.15045C7.82861 14.1128 7.56522 13.842 7.56522 13.511Z" fill="#FF636E"/>
<path d="M4.68161 13.511V12.7619C4.68161 12.431 4.94495 12.1602 5.26684 12.1602H1.72C1.39811 12.1602 1.13477 12.431 1.13477 12.7619V13.511C1.13477 13.842 1.39811 14.1128 1.72 14.1128H5.26684C4.94495 14.1128 4.68161 13.842 4.68161 13.511Z" fill="#FF4654"/>
<path d="M22.4078 14.0586H18.958C16.4756 14.2964 14.4208 15.9718 13.149 17.3114H22.4078C23.0352 17.3114 23.5486 16.7981 23.5486 16.1706V15.1994C23.5485 14.572 23.0352 14.0586 22.4078 14.0586ZM4.73902 14.0586H1.59197C0.964547 14.0586 0.451172 14.572 0.451172 15.1994V16.1706C0.451172 16.798 0.964547 17.3114 1.59197 17.3114H10.5812C8.07084 14.7988 4.73902 14.0586 4.73902 14.0586Z" fill="#A15427"/>
<path d="M3.99802 16.1706V15.1994C3.99802 14.6644 4.37142 14.2125 4.87041 14.091C4.78538 14.069 4.73897 14.0586 4.73897 14.0586H1.59197C0.9645 14.0586 0.451172 14.572 0.451172 15.1994V16.1706C0.451172 16.798 0.964547 17.3114 1.59197 17.3114H5.13881C4.51139 17.3114 3.99802 16.7981 3.99802 16.1706Z" fill="#924D24"/>
<path d="M4.64258 14.0586C4.64258 14.0586 8.47686 14.91 11.018 17.8878C11.4647 18.4113 12.2733 18.4152 12.7211 17.8926C13.9024 16.5143 16.1953 14.3325 19.0547 14.0586H4.64258Z" fill="#FFE02F"/>
<path d="M4.64258 14.0586C4.64258 14.0586 8.47686 14.91 11.018 17.8878C11.4647 18.4113 12.2733 18.4152 12.7211 17.8926C13.9024 16.5143 16.1953 14.3325 19.0547 14.0586H4.64258Z" fill="#FFE02F"/>
<path d="M13.1444 17.1455C11.8326 15.6084 10.1764 14.6379 8.88073 14.0586H4.64258C4.64258 14.0586 8.47686 14.91 11.018 17.8878C11.4647 18.4113 12.2733 18.4152 12.7211 17.8926C12.901 17.6827 13.0866 17.4777 13.2775 17.2777C13.2296 17.2374 13.185 17.1932 13.1444 17.1455Z" fill="#FBC700"/>
<path d="M23.9882 10.6073C23.4057 6.18645 18.274 2.70312 12 2.70312C5.7283 2.70312 0.59427 6.18514 0.0118485 10.6072C-0.0966671 11.4312 0.554333 12.2078 1.38533 12.2078H22.6147C23.4457 12.2078 24.0967 11.4312 23.9882 10.6073Z" fill="#FFC365"/>
<path d="M3.55869 10.6072C4.08515 6.61006 8.33061 3.38131 13.7736 2.79763C13.1845 2.73456 12.5925 2.70302 12 2.70313C5.7283 2.70313 0.59427 6.18514 0.0118485 10.6072C-0.0966671 11.4311 0.554333 12.2077 1.38533 12.2077H4.93218C4.10113 12.2078 3.45018 11.4312 3.55869 10.6072Z" fill="#FFB640"/>
<path d="M4.72617 4.96634L5.2298 5.69033C5.34619 5.85762 5.59369 5.85762 5.71003 5.69033L6.21366 4.96634C6.48047 4.58281 6.40134 4.10905 6.11902 3.81641C5.57517 4.03808 5.05767 4.28961 4.57031 4.56767C4.58836 4.70394 4.63833 4.84002 4.72617 4.96634Z" fill="#FCD79B"/>
<path d="M9.72149 3.54297C8.98968 3.54297 8.55983 4.36567 8.97772 4.96638L9.48135 5.69036C9.59774 5.85766 9.84524 5.85766 9.96158 5.69036L10.4652 4.96638C10.8831 4.36572 10.4533 3.54297 9.72149 3.54297ZM13.9743 3.54297C13.2425 3.54297 12.8127 4.36567 13.2306 4.96638L13.7342 5.69036C13.8506 5.85766 14.0981 5.85766 14.2144 5.69036L14.718 4.96642C15.136 4.36572 14.7061 3.54297 13.9743 3.54297ZM7.5951 8.90669C6.86329 8.90669 6.43344 8.08398 6.85133 7.48328L7.35496 6.7593C7.47135 6.592 7.71885 6.592 7.83519 6.7593L8.33882 7.48328C8.75676 8.08398 8.32691 8.90669 7.5951 8.90669ZM11.8479 8.90669C11.1161 8.90669 10.6862 8.08398 11.1041 7.48328L11.6077 6.7593C11.7241 6.592 11.9716 6.592 12.088 6.7593L12.5916 7.48328C13.0096 8.08398 12.5797 8.90669 11.8479 8.90669ZM16.1007 8.90669C15.3689 8.90669 14.9391 8.08398 15.3569 7.48328L15.8606 6.7593C15.977 6.592 16.2245 6.592 16.3408 6.7593L16.8444 7.48328C17.2624 8.08398 16.8325 8.90669 16.1007 8.90669ZM17.987 5.69041C18.1033 5.8577 18.3508 5.8577 18.4672 5.69041L18.9708 4.96642C19.0941 4.78923 19.1431 4.59273 19.1329 4.40373C18.6697 4.15586 18.1815 3.93119 17.6709 3.73267C17.3154 4.01116 17.1891 4.54361 17.4833 4.96642L17.987 5.69041Z" fill="#FEE6C1"/>
<path d="M10.0411 4.96637C9.74024 4.53386 9.87885 3.98636 10.2531 3.71364C10.1076 3.60756 9.92638 3.54297 9.72144 3.54297C8.98968 3.54297 8.55979 4.36567 8.97768 4.96637L9.4813 5.69036C9.59769 5.85766 9.84519 5.85766 9.96154 5.69036L10.2531 5.2712L10.0411 4.96637ZM14.2939 4.96637C13.9931 4.53386 14.1316 3.98636 14.506 3.71364C14.3604 3.60756 14.1792 3.54297 13.9743 3.54297C13.2425 3.54297 12.8126 4.36567 13.2305 4.96637L13.7341 5.69036C13.8505 5.85766 14.098 5.85766 14.2144 5.69036L14.506 5.2712L14.2939 4.96637ZM7.91474 7.48323L8.1268 7.17841L7.83519 6.75925C7.7188 6.59195 7.4713 6.59195 7.35496 6.75925L6.85133 7.48323C6.43344 8.08394 6.86329 8.90664 7.5951 8.90664C7.80004 8.90664 7.98126 8.84205 8.1268 8.73597C7.75251 8.4632 7.6139 7.9157 7.91474 7.48323ZM12.1675 7.48323L12.3796 7.17841L12.088 6.75925C11.9716 6.59195 11.7241 6.59195 11.6077 6.75925L11.1041 7.48323C10.6862 8.08394 11.1161 8.90664 11.8479 8.90664C12.0528 8.90664 12.234 8.84205 12.3796 8.73597C12.0053 8.4632 11.8667 7.9157 12.1675 7.48323ZM16.4203 7.48323L16.6324 7.17841L16.3408 6.75925C16.2244 6.59195 15.9769 6.59195 15.8605 6.75925L15.3569 7.48323C14.939 8.08394 15.3689 8.90664 16.1007 8.90664C16.3056 8.90664 16.4868 8.84205 16.6324 8.73597C16.2581 8.4632 16.1195 7.9157 16.4203 7.48323ZM18.5467 4.96637C18.3482 4.681 18.3417 4.34589 18.4674 4.07242C18.2056 3.95071 17.9399 3.83739 17.6709 3.73262C17.3153 4.01111 17.1891 4.54356 17.4832 4.96637L17.9869 5.69036C18.1033 5.85766 18.3508 5.85766 18.4671 5.69036L18.7587 5.2712L18.5467 4.96637Z" fill="#FCD79B"/>
</g>
<defs>
<clipPath id="clip0_6730_4749">
<rect width="24" height="24" fill="white"/>
</clipPath>
</defs>
</svg>
