<svg width="48" height="48" viewBox="0 0 48 48" fill="none" xmlns="http://www.w3.org/2000/svg">
<path fill-rule="evenodd" clip-rule="evenodd" d="M22 6H26C35.9411 6 44 14.0589 44 24C44 33.9411 35.9411 42 26 42H12C7.58172 42 4 38.4183 4 34V24C4 14.0589 12.0589 6 22 6ZM24 26C25.1046 26 26 25.1046 26 24C26 22.8954 25.1046 22 24 22C22.8954 22 22 22.8954 22 24C22 25.1046 22.8954 26 24 26ZM34 24C34 25.1046 33.1046 26 32 26C30.8954 26 30 25.1046 30 24C30 22.8954 30.8954 22 32 22C33.1046 22 34 22.8954 34 24ZM16 26C17.1046 26 18 25.1046 18 24C18 22.8954 17.1046 22 16 22C14.8954 22 14 22.8954 14 24C14 25.1046 14.8954 26 16 26Z" fill="white"/>
</svg>
