<svg width="218" height="146" viewBox="0 0 218 146" fill="none" xmlns="http://www.w3.org/2000/svg">
<path d="M170.709 69.9991C170.709 34.2607 141.737 5.28906 105.999 5.28906C70.2607 5.28906 41.2891 34.2607 41.2891 69.9991C41.2891 105.737 70.2607 134.709 105.999 134.709C141.737 134.709 170.709 105.737 170.709 69.9991Z" stroke="#13C0D2" stroke-width="0.579522"/>
<path d="M154.389 69.9994C154.389 43.2743 132.725 21.6094 105.999 21.6094C79.2743 21.6094 57.6094 43.2743 57.6094 69.9994C57.6094 96.7245 79.2743 118.389 105.999 118.389C132.725 118.389 154.389 96.7245 154.389 69.9994Z" stroke="#11BECF" stroke-width="0.579522"/>
<path d="M120.488 44.9059C124.858 47.4293 128.493 51.0504 131.034 55.4106C133.575 59.7709 134.933 64.7191 134.974 69.7655C135.015 74.8119 133.737 79.7814 131.267 84.1821C128.797 88.5829 125.22 92.2622 120.891 94.8558C116.562 97.4495 111.631 98.8676 106.585 98.9697C101.54 99.0718 96.5549 97.8544 92.1245 95.438C87.6941 93.0216 83.9715 89.4901 81.3254 85.1929C78.6793 80.8957 77.2014 75.9819 77.0379 70.938L77.0234 69.9992L77.0379 69.0604C77.2002 64.0562 78.6564 59.1794 81.2645 54.9055C83.8726 50.6317 87.5437 47.1065 91.9197 44.6738C96.2958 42.241 101.228 40.9837 106.234 41.0244C111.241 41.0651 116.152 42.4024 120.488 44.9059ZM116.741 62.1554C116.242 61.6565 115.578 61.3568 114.874 61.3125C114.17 61.2682 113.474 61.4824 112.916 61.9149L112.644 62.1554L103.102 71.6943L99.3553 67.9506L99.0829 67.7101C98.5254 67.2779 97.8293 67.064 97.1253 67.1084C96.4213 67.1528 95.7577 67.4526 95.2589 67.9514C94.76 68.4502 94.4603 69.1138 94.4159 69.8178C94.3715 70.5219 94.5854 71.2179 95.0176 71.7754L95.2581 72.0478L101.053 77.843L101.326 78.0835C101.834 78.4778 102.459 78.6918 103.102 78.6918C103.745 78.6918 104.37 78.4778 104.878 78.0835L105.151 77.843L116.741 66.2526L116.981 65.9802C117.414 65.4227 117.628 64.7266 117.584 64.0224C117.54 63.3182 117.24 62.6543 116.741 62.1554Z" fill="#11BECF"/>
<path d="M174.448 85.0709C174.574 84.4529 175.456 84.4529 175.583 85.0709L176.118 87.692C176.165 87.9195 176.344 88.0972 176.571 88.1437L179.191 88.6794C179.809 88.8058 179.809 89.6887 179.191 89.815L176.571 90.3507C176.344 90.3972 176.165 90.575 176.118 90.8025L175.583 93.4236C175.456 94.0415 174.574 94.0415 174.448 93.4236L173.911 90.8025C173.865 90.575 173.688 90.3972 173.461 90.3507L170.838 89.815C170.22 89.6887 170.22 88.8058 170.838 88.6794L173.461 88.1437C173.688 88.0972 173.865 87.9195 173.911 87.692L174.448 85.0709Z" fill="#11BECF"/>
<path opacity="0.2" d="M56.8056 104.774C56.9319 104.156 57.8148 104.156 57.9411 104.774L58.2802 106.433C58.3267 106.66 58.5044 106.838 58.7319 106.884L60.3906 107.224C61.0086 107.35 61.0086 108.233 60.3906 108.359L58.7319 108.698C58.5044 108.745 58.3267 108.922 58.2802 109.15L57.9411 110.809C57.8148 111.427 56.9319 111.427 56.8056 110.809L56.4665 109.15C56.42 108.922 56.2423 108.745 56.0148 108.698L54.356 108.359C53.7381 108.233 53.7381 107.35 54.356 107.224L56.0148 106.884C56.2423 106.838 56.42 106.66 56.4665 106.433L56.8056 104.774Z" fill="#05877E"/>
<path opacity="0.2" d="M162.278 36.3912C162.405 35.7732 163.287 35.7732 163.414 36.3912L163.753 38.0499C163.799 38.2774 163.977 38.4552 164.205 38.5017L165.863 38.8407C166.481 38.967 166.481 39.85 165.863 39.9763L164.205 40.3153C163.977 40.3618 163.799 40.5396 163.753 40.7671L163.414 42.4258C163.287 43.0438 162.405 43.0438 162.278 42.4258L161.939 40.7671C161.893 40.5396 161.715 40.3618 161.487 40.3153L159.829 39.9763C159.211 39.85 159.211 38.967 159.829 38.8407L161.487 38.5017C161.715 38.4552 161.893 38.2774 161.939 38.0499L162.278 36.3912Z" fill="#05877E"/>
<path d="M46.3725 37.5494C46.4988 36.9314 47.3818 36.9314 47.5081 37.5494L48.4372 42.0952C48.4837 42.3227 48.6615 42.5004 48.889 42.5469L53.4348 43.476C54.0527 43.6024 54.0527 44.4853 53.4348 44.6116L48.889 45.5407C48.6615 45.5872 48.4837 45.765 48.4372 45.9925L47.5081 50.5383C47.3818 51.1562 46.4988 51.1562 46.3725 50.5383L45.4434 45.9925C45.3969 45.765 45.2191 45.5872 44.9917 45.5407L40.4459 44.6116C39.8279 44.4853 39.8279 43.6024 40.4459 43.476L44.9917 42.5469C45.2191 42.5004 45.3969 42.3227 45.4434 42.0952L46.3725 37.5494Z" fill="#11BECF"/>
</svg>
