<svg width="70" height="70" viewBox="0 0 70 70" fill="none" xmlns="http://www.w3.org/2000/svg">
<path d="M49.2591 9.67741C53.6294 12.2008 57.265 15.8219 59.8058 20.1821C62.3467 24.5424 63.7047 29.4906 63.7454 34.537C63.7862 39.5834 62.5083 44.5529 60.0382 48.9536C57.5681 53.3543 53.9916 57.0336 49.6625 59.6273C45.3335 62.221 40.4021 63.6391 35.3566 63.7412C30.3111 63.8433 25.3264 62.6259 20.896 60.2095C16.4655 57.7931 12.743 54.2615 10.0969 49.9644C7.4508 45.6672 5.97286 40.7534 5.80941 35.7095L5.79492 34.7707L5.80941 33.8319C5.97169 28.8277 7.42786 23.9509 10.036 19.677C12.6441 15.4032 16.3151 11.878 20.6912 9.44526C25.0673 7.01251 29.9991 5.75519 35.0057 5.79588C40.0124 5.83656 44.9231 7.17387 49.2591 9.67741ZM45.5124 26.9269C45.0135 26.428 44.3497 26.1283 43.6455 26.084C42.9413 26.0397 42.2451 26.2539 41.6876 26.6864L41.4152 26.9269L31.8734 36.4658L28.1268 32.7221L27.8544 32.4816C27.2969 32.0494 26.6008 31.8355 25.8968 31.8799C25.1928 31.9243 24.5291 32.224 24.0303 32.7228C23.5315 33.2217 23.2318 33.8853 23.1874 34.5893C23.143 35.2933 23.3569 35.9894 23.7891 36.5469L24.0296 36.8193L29.8248 42.6145L30.0972 42.855C30.6053 43.2493 31.2302 43.4633 31.8734 43.4633C32.5166 43.4633 33.1415 43.2493 33.6496 42.855L33.922 42.6145L45.5124 31.0241L45.7529 30.7517C46.1854 30.1942 46.3996 29.4981 46.3553 28.7939C46.311 28.0897 46.0113 27.4258 45.5124 26.9269Z" fill="#11BECF"/>
</svg>
