<svg width="20" height="20" viewBox="0 0 20 20" fill="none" xmlns="http://www.w3.org/2000/svg">
<path fill-rule="evenodd" clip-rule="evenodd" d="M16.875 16.2497C17.2202 16.2497 17.5 16.5295 17.5 16.8747C17.5 17.2199 17.2202 17.4997 16.875 17.4997H3.125C2.77982 17.4997 2.5 17.2199 2.5 16.8747C2.5 16.5295 2.77982 16.2497 3.125 16.2497H16.875ZM10.7129 5.1999C11.1033 5.93474 11.6776 6.86287 12.4072 7.59248C13.1368 8.32208 14.065 8.89642 14.7998 9.28682L10.0498 14.0358C9.75507 14.3306 9.37259 14.5218 8.95996 14.5808L6.09961 14.9899C5.464 15.0807 4.91903 14.5357 5.00977 13.9001L5.41895 11.0397C5.47789 10.6271 5.66913 10.2446 5.96387 9.9499L10.7129 5.1999ZM12.8496 3.06416C13.6019 2.31196 14.821 2.31193 15.5732 3.06416L16.9355 4.42646C17.6878 5.17875 17.6877 6.39779 16.9355 7.1501L15.7275 8.3581C15.6329 8.31121 15.533 8.26013 15.4297 8.20576C14.7336 7.83926 13.9075 7.32514 13.291 6.70869C12.6746 6.09224 12.1604 5.26612 11.7939 4.57002C11.7396 4.46673 11.6885 4.36686 11.6416 4.27217L12.8496 3.06416Z" fill="#777980"/>
</svg>
