<svg width="32" height="32" viewBox="0 0 32 32" fill="none" xmlns="http://www.w3.org/2000/svg">
<path d="M26.6876 11.1824H24.0607C23.0458 11.1824 21.9712 11.2421 20.9563 11.1824C19.7025 11.063 18.6279 10.3466 18.0906 9.2123C17.7921 8.61528 17.7324 7.95857 17.7324 7.30185V0.0779773C17.0757 0.0182758 16.4786 0.0779773 15.8219 0.0779773H9.79209C8.59806 0.0779773 7.10552 -0.160828 5.91149 0.19738C4.59806 0.555589 3.52344 1.86902 3.52344 3.30185V25.6302C3.52344 27.5406 4.89657 28.9138 6.80702 28.9735C9.85179 29.0332 12.8966 28.9735 15.9413 28.9735C19.0458 28.9735 22.0906 29.0332 25.1951 28.9735C27.1055 28.9138 28.4786 27.4809 28.4786 25.5705V11.2421H28.4189C27.8219 11.1824 27.2846 11.1824 26.6876 11.1824ZM13.3145 25.272C12.8369 25.272 12.4189 24.8541 12.4189 24.3765C12.4189 23.8988 12.8369 23.4809 13.3145 23.4809H18.0906C18.5682 23.4809 18.9861 23.8988 18.9861 24.3765C18.9861 24.8541 18.5682 25.272 18.0906 25.272H13.3145ZM12.3592 21.5705C12.3592 21.0929 12.7772 20.675 13.2548 20.675H18.0309C18.5085 20.675 18.9264 21.0929 18.9264 21.5705C18.9264 22.0481 18.5085 22.466 18.0309 22.466H13.2548C12.7772 22.466 12.4189 22.1078 12.3592 21.5705ZM19.4637 14.8839C20.2995 15.7198 18.9861 16.9735 18.21 16.1377L16.598 14.5257V18.466C16.598 18.9436 16.1801 19.3615 15.7025 19.3615C15.2249 19.3615 14.807 18.9436 14.807 18.466V14.5257L13.1951 16.1377C12.3592 16.9735 11.1055 15.66 11.9413 14.8839L13.7324 13.0929L14.6279 12.1974C14.9264 11.8989 15.2249 11.5407 15.7025 11.4809C16.2398 11.4212 16.5383 11.8989 16.8966 12.1974L18.7473 14.0481C18.9264 14.3466 19.2249 14.6451 19.4637 14.8839Z" fill="#0F9DAB"/>
<path d="M19.7661 1.63041L19.5273 1.3916V7.42145C19.5273 8.55577 20.1841 9.39159 21.3781 9.39159H27.5273L22.5124 4.37667L19.7661 1.63041Z" fill="#0F9DAB"/>
</svg>
