<svg width="24" height="24" viewBox="0 0 24 24" fill="none" xmlns="http://www.w3.org/2000/svg">
<g clip-path="url(#clip0_6730_4779)">
<path d="M9 10.5V18.75H18.75C19.0484 18.75 19.3345 18.6315 19.5455 18.4205C19.7565 18.2095 19.875 17.9234 19.875 17.625V10.5H9Z" fill="#D23F33"/>
<path d="M17.625 11.25H10.875C10.2537 11.25 9.75 11.7537 9.75 12.375V16.875C9.75 17.4963 10.2537 18 10.875 18H17.625C18.2463 18 18.75 17.4963 18.75 16.875V12.375C18.75 11.7537 18.2463 11.25 17.625 11.25Z" fill="#DB655C"/>
<path d="M7.125 0.75H22.5V10.5H7.125V0.75Z" fill="#AB2A25"/>
<path d="M7.125 9.375H20.25C20.5484 9.375 20.8345 9.25647 21.0455 9.0455C21.2565 8.83452 21.375 8.54837 21.375 8.25V1.125C21.3738 0.996957 21.3504 0.870088 21.306 0.75H7.125V9.375Z" fill="#D23F33"/>
<path d="M19.125 2.25H9C8.37868 2.25 7.875 2.75368 7.875 3.375V6.75C7.875 7.37132 8.37868 7.875 9 7.875H19.125C19.7463 7.875 20.25 7.37132 20.25 6.75V3.375C20.25 2.75368 19.7463 2.25 19.125 2.25Z" fill="#DB655C"/>
<path d="M8.625 3H21V8.25H8.625V3Z" fill="#BCE4F8"/>
<path d="M8.625 7.5H19.125C19.4234 7.5 19.7095 7.38147 19.9205 7.1705C20.1315 6.95952 20.25 6.67337 20.25 6.375V3.375C20.2488 3.24696 20.2254 3.12009 20.181 3H8.625V7.5Z" fill="#E3F4FC"/>
<path d="M0.75 21.75H23.25V23.25H0.75V21.75Z" fill="#858685"/>
<path d="M19.7843 19.5006H9.84075C9.43098 19.4889 9.03331 19.6403 8.73506 19.9215C8.43681 20.2028 8.26235 20.5909 8.25 21.0006V21.7506H21.375V21.0006C21.3626 20.5909 21.1882 20.2028 20.8899 19.9215C20.5917 19.6403 20.194 19.4889 19.7843 19.5006Z" fill="#AB2A25"/>
<path d="M9.84075 19.5H19.7843C20.0802 19.5002 20.3706 19.5802 20.625 19.7314V10.5H9V19.7314C9.25439 19.5802 9.54481 19.5002 9.84075 19.5Z" fill="#AB2A25"/>
<path d="M12 6.75C12.6213 6.75 13.125 6.24632 13.125 5.625C13.125 5.00368 12.6213 4.5 12 4.5C11.3787 4.5 10.875 5.00368 10.875 5.625C10.875 6.24632 11.3787 6.75 12 6.75Z" fill="white"/>
<path d="M9 12H6.75V14.25H9M1.5 6.75H5.25V9H1.5V6.75Z" fill="#F3A744"/>
<path d="M2.625 6.75V5.9355C2.62503 5.59925 2.55881 5.26629 2.43012 4.95564C2.30143 4.64498 2.1128 4.36273 1.875 4.125L3 3C3.3567 3.35668 3.63964 3.78012 3.83267 4.24616C4.0257 4.7122 4.12503 5.21169 4.125 5.71613V6.75" fill="#CBCCCA"/>
<path d="M10.5 19.5V12H19.125V19.5" fill="#BCE4F8"/>
<path d="M1.5 8.625H4.125C4.32391 8.625 4.51468 8.54598 4.65533 8.40533C4.79598 8.26468 4.875 8.07391 4.875 7.875V6.75H1.5V8.625Z" fill="#EDCB61"/>
<path d="M4.3125 7.875H2.8125C2.70895 7.875 2.625 7.95895 2.625 8.0625C2.625 8.16605 2.70895 8.25 2.8125 8.25H4.3125C4.41605 8.25 4.5 8.16605 4.5 8.0625C4.5 7.95895 4.41605 7.875 4.3125 7.875Z" fill="#F4E0A0"/>
<path d="M6.75 12V13.875H7.875C8.07391 13.875 8.26468 13.796 8.40533 13.6553C8.54598 13.5147 8.625 13.3239 8.625 13.125V12H6.75Z" fill="#EDCB61"/>
<path d="M8.0625 13.125H7.3125C7.20895 13.125 7.125 13.2089 7.125 13.3125C7.125 13.4161 7.20895 13.5 7.3125 13.5H8.0625C8.16605 13.5 8.25 13.4161 8.25 13.3125C8.25 13.2089 8.16605 13.125 8.0625 13.125Z" fill="#F4E0A0"/>
<path d="M3 3L1.875 4.125C2.1128 4.36273 2.30143 4.64498 2.43012 4.95564C2.55881 5.26629 2.62503 5.59925 2.625 5.9355V6.375C2.92337 6.375 3.20952 6.25647 3.4205 6.0455C3.63147 5.83452 3.75 5.54837 3.75 5.25V4.07138C3.56318 3.67395 3.30949 3.31156 3 3Z" fill="#E0DEE0"/>
<path d="M3.1875 6C3.29105 6 3.375 5.83211 3.375 5.625C3.375 5.41789 3.29105 5.25 3.1875 5.25C3.08395 5.25 3 5.41789 3 5.625C3 5.83211 3.08395 6 3.1875 6Z" fill="#F9F8F9"/>
<path d="M20.625 20.2506V19.732C20.3706 19.5808 20.0802 19.5009 19.7843 19.5006H9.84075C9.43098 19.4889 9.03331 19.6403 8.73506 19.9215C8.43681 20.2028 8.26235 20.5909 8.25 21.0006H19.875C20.0739 21.0006 20.2647 20.9216 20.4053 20.781C20.546 20.6403 20.625 20.4495 20.625 20.2506Z" fill="#D23F33"/>
<path d="M19.5 19.875H16.875C16.6679 19.875 16.5 20.0429 16.5 20.25C16.5 20.4571 16.6679 20.625 16.875 20.625H19.5C19.7071 20.625 19.875 20.4571 19.875 20.25C19.875 20.0429 19.7071 19.875 19.5 19.875Z" fill="#DB655C"/>
<path d="M10.5 12V18.75H17.25C17.5484 18.75 17.8345 18.6315 18.0455 18.4205C18.2565 18.2095 18.375 17.9234 18.375 17.625V12H10.5Z" fill="#E3F4FC"/>
<path d="M0.75 22.5H21.75C21.9489 22.5 22.1397 22.421 22.2803 22.2803C22.421 22.1397 22.5 21.9489 22.5 21.75H0.75V22.5Z" fill="#B6B6B6"/>
<path d="M17.25 13.5H15.75C15.3358 13.5 15 13.8358 15 14.25C15 14.6642 15.3358 15 15.75 15H17.25C17.6642 15 18 14.6642 18 14.25C18 13.8358 17.6642 13.5 17.25 13.5Z" fill="#F9FDFE"/>
<path d="M13.125 16.5H11.625C11.2108 16.5 10.875 16.8358 10.875 17.25C10.875 17.6642 11.2108 18 11.625 18H13.125C13.5392 18 13.875 17.6642 13.875 17.25C13.875 16.8358 13.5392 16.5 13.125 16.5Z" fill="#F9FDFE"/>
<path d="M23.25 21.375H21.75V21C21.7474 20.7147 21.6782 20.4339 21.548 20.18C21.4178 19.9261 21.2302 19.7061 21 19.5375V10.875H22.5C22.5995 10.875 22.6948 10.8355 22.7652 10.7652C22.8355 10.6948 22.875 10.5995 22.875 10.5V0.75C22.875 0.650544 22.8355 0.555161 22.7652 0.484835C22.6948 0.414509 22.5995 0.375 22.5 0.375H7.125C7.02554 0.375 6.93016 0.414509 6.85983 0.484835C6.78951 0.555161 6.75 0.650544 6.75 0.75V10.5C6.75 10.5995 6.78951 10.6948 6.85983 10.7652C6.93016 10.8355 7.02554 10.875 7.125 10.875H8.625V11.625H6.75C6.65054 11.625 6.55516 11.6645 6.48483 11.7348C6.41451 11.8052 6.375 11.9005 6.375 12V12.4282C6.05395 12.5111 5.76941 12.6981 5.56586 12.9598C5.36232 13.2216 5.25124 13.5434 5.25 13.875V17.625C5.25 17.8239 5.17098 18.0147 5.03033 18.1553C4.88968 18.296 4.69891 18.375 4.5 18.375C4.30109 18.375 4.11032 18.296 3.96967 18.1553C3.82902 18.0147 3.75 17.8239 3.75 17.625V9.375H5.25C5.34946 9.375 5.44484 9.33549 5.51516 9.26517C5.58549 9.19484 5.625 9.09946 5.625 9V6.75C5.625 6.65054 5.58549 6.55516 5.51516 6.48483C5.44484 6.41451 5.34946 6.375 5.25 6.375H4.5V5.71613C4.50144 5.16224 4.39304 4.61357 4.18108 4.10185C3.96912 3.59013 3.6578 3.12551 3.26512 2.73488C3.1948 2.66457 3.09944 2.62508 3 2.62508C2.90056 2.62508 2.8052 2.66457 2.73488 2.73488L1.60988 3.85988C1.53957 3.9302 1.50008 4.02556 1.50008 4.125C1.50008 4.22444 1.53957 4.3198 1.60988 4.39012C1.81345 4.59268 1.97484 4.83358 2.08471 5.0989C2.19459 5.36423 2.25077 5.6487 2.25 5.93587V6.375H1.5C1.40054 6.375 1.30516 6.41451 1.23483 6.48483C1.16451 6.55516 1.125 6.65054 1.125 6.75V9C1.125 9.09946 1.16451 9.19484 1.23483 9.26517C1.30516 9.33549 1.40054 9.375 1.5 9.375H3V17.625C3 18.0228 3.15804 18.4044 3.43934 18.6857C3.72064 18.967 4.10218 19.125 4.5 19.125C4.89782 19.125 5.27936 18.967 5.56066 18.6857C5.84196 18.4044 6 18.0228 6 17.625V13.875C6.0004 13.7439 6.03525 13.6153 6.10107 13.5019C6.16689 13.3886 6.26136 13.2946 6.375 13.2292V14.25C6.375 14.3495 6.41451 14.4448 6.48483 14.5152C6.55516 14.5855 6.65054 14.625 6.75 14.625H8.625V19.5375C8.39478 19.7061 8.2071 19.9261 8.07689 20.18C7.94669 20.4339 7.87755 20.7147 7.875 21V21.375H0.75C0.650544 21.375 0.555161 21.4145 0.484835 21.4848C0.414509 21.5552 0.375 21.6505 0.375 21.75V23.25C0.375 23.3495 0.414509 23.4448 0.484835 23.5152C0.555161 23.5855 0.650544 23.625 0.75 23.625H23.25C23.3495 23.625 23.4448 23.5855 23.5152 23.5152C23.5855 23.4448 23.625 23.3495 23.625 23.25V21.75C23.625 21.6505 23.5855 21.5552 23.5152 21.4848C23.4448 21.4145 23.3495 21.375 23.25 21.375ZM2.9865 3.5445C3.48284 4.15921 3.75244 4.92605 3.75 5.71613V6.375H3V5.93587C3.00181 5.2863 2.78654 4.65474 2.38838 4.1415L2.9865 3.5445ZM1.875 8.625V7.125H4.875V8.625H1.875ZM7.5 10.125V1.125H22.125V10.125H7.5ZM19.125 11.625H10.5C10.4005 11.625 10.3052 11.6645 10.2348 11.7348C10.1645 11.8052 10.125 11.9005 10.125 12V19.125H9.84075C9.68376 19.1267 9.52748 19.1464 9.375 19.1839V10.875H20.25V19.1839C20.0976 19.1465 19.9415 19.1268 19.7846 19.125H19.5V12C19.5 11.9005 19.4605 11.8052 19.3902 11.7348C19.3198 11.6645 19.2245 11.625 19.125 11.625ZM10.875 15.375V12.375H18.75V15.375H10.875ZM18.75 16.125V19.125H10.875V16.125H18.75ZM7.125 13.875V12.375H8.625V13.875H7.125ZM8.625 21C8.63788 20.6899 8.77298 20.3975 9.00079 20.1867C9.22859 19.9759 9.53058 19.8638 9.84075 19.875H19.7846C20.0947 19.8639 20.3966 19.976 20.6243 20.1868C20.8521 20.3976 20.9871 20.69 21 21V21.375H8.625V21ZM22.875 22.875H1.125V22.125H22.875V22.875Z" fill="black"/>
<path d="M21 2.625H8.625C8.52554 2.625 8.43016 2.66451 8.35983 2.73484C8.28951 2.80516 8.25 2.90054 8.25 3V8.25C8.25 8.34946 8.28951 8.44484 8.35983 8.51517C8.43016 8.58549 8.52554 8.625 8.625 8.625H21C21.0995 8.625 21.1948 8.58549 21.2652 8.51517C21.3355 8.44484 21.375 8.34946 21.375 8.25V3C21.375 2.90054 21.3355 2.80516 21.2652 2.73484C21.1948 2.66451 21.0995 2.625 21 2.625ZM20.625 7.875H9V3.375H20.625V7.875Z" fill="black"/>
<path d="M12 7.125C12.2967 7.125 12.5867 7.03703 12.8334 6.87221C13.08 6.70738 13.2723 6.47311 13.3858 6.19903C13.4994 5.92494 13.5291 5.62334 13.4712 5.33237C13.4133 5.04139 13.2704 4.77412 13.0607 4.56434C12.8509 4.35456 12.5836 4.2117 12.2926 4.15382C12.0017 4.09594 11.7001 4.12565 11.426 4.23918C11.1519 4.35271 10.9176 4.54497 10.7528 4.79165C10.588 5.03832 10.5 5.32833 10.5 5.625C10.5 6.02283 10.658 6.40436 10.9393 6.68566C11.2206 6.96697 11.6022 7.125 12 7.125ZM12 4.875C12.1483 4.875 12.2933 4.91899 12.4167 5.0014C12.54 5.08381 12.6361 5.20094 12.6929 5.33799C12.7497 5.47503 12.7645 5.62583 12.7356 5.77132C12.7067 5.9168 12.6352 6.05044 12.5303 6.15533C12.4254 6.26022 12.2918 6.33165 12.1463 6.36059C12.0008 6.38953 11.85 6.37468 11.713 6.31791C11.5759 6.26114 11.4588 6.16502 11.3764 6.04168C11.294 5.91834 11.25 5.77334 11.25 5.625C11.25 5.42609 11.329 5.23532 11.4697 5.09467C11.6103 4.95402 11.8011 4.875 12 4.875ZM14.6257 4.5H19.1257V5.25H14.6257V4.5ZM14.6257 6H19.1257V6.75H14.6257V6Z" fill="black"/>
</g>
<defs>
<clipPath id="clip0_6730_4779">
<rect width="24" height="24" fill="white"/>
</clipPath>
</defs>
</svg>
