<svg width="32" height="32" viewBox="0 0 32 32" fill="none" xmlns="http://www.w3.org/2000/svg">
<path fill-rule="evenodd" clip-rule="evenodd" d="M15.9992 4L21.2003 13.1025C21.2866 13.2536 21.3321 13.4247 21.3322 13.5986V24.7979C21.3322 25.1322 21.1651 25.4444 20.8869 25.6299L18.34 27.3281C17.6829 27.7661 16.9109 28 16.1212 28H9.78921C7.95374 28 6.35352 26.7504 5.90835 24.9697L3.28726 14.4854C2.97168 13.2231 3.92654 12 5.22769 12H13.3322L10.59 7.88672C9.48266 6.22545 10.6736 4.00027 12.6701 4H15.9992ZM27.3322 10.667C28.4367 10.667 29.3322 11.5624 29.3322 12.667V26C29.3322 27.1046 28.4367 28 27.3322 28H25.3322C24.2277 27.9998 23.3322 27.1045 23.3322 26V12.667C23.3322 11.5625 24.2277 10.6672 25.3322 10.667H27.3322Z" fill="#07454B"/>
</svg>
