<svg width="14" height="14" viewBox="0 0 14 14" fill="none" xmlns="http://www.w3.org/2000/svg">
<path d="M7.94366 12.4644C7.69073 12.7012 7.35257 12.8337 7.00064 12.8337C6.64872 12.8337 6.31062 12.7012 6.05763 12.4644C3.74093 10.2822 0.636277 7.84435 2.15032 4.30513C2.96895 2.3915 4.93403 1.16699 7.00064 1.16699C9.06728 1.16699 11.0324 2.3915 11.851 4.30513C13.3631 7.83992 10.2661 10.2897 7.94366 12.4644Z" stroke="#4A4C56"/>
<path d="M9.04232 6.41667C9.04232 7.54425 8.12823 8.45833 7.00065 8.45833C5.87307 8.45833 4.95898 7.54425 4.95898 6.41667C4.95898 5.28908 5.87307 4.375 7.00065 4.375C8.12823 4.375 9.04232 5.28908 9.04232 6.41667Z" stroke="#4A4C56"/>
</svg>
