<svg width="20" height="20" viewBox="0 0 20 20" fill="none" xmlns="http://www.w3.org/2000/svg">
<path d="M10.001 1.66797C13.2226 1.66797 15.8339 4.22597 15.834 7.38184C15.834 9.28531 14.4196 11.6645 12.8701 13.2529C11.8507 14.2979 10.7725 15.001 10.001 15.001C9.22942 15.001 8.15126 14.2979 7.13184 13.2529C5.58232 11.6645 4.16797 9.28531 4.16797 7.38184C4.16802 4.22597 6.77935 1.66797 10.001 1.66797ZM10.001 5.83398C9.0805 5.83398 8.33398 6.5805 8.33398 7.50098C8.33398 8.42145 9.0805 9.16797 10.001 9.16797C10.9215 9.16797 11.668 8.42145 11.668 7.50098C11.668 6.5805 10.9215 5.83398 10.001 5.83398Z" fill="#777980"/>
<path d="M14.1191 13.7441C16.1557 14.1911 17.5 14.9604 17.5 15.834C17.4993 17.2145 14.1417 18.334 10 18.334C5.85827 18.334 2.50066 17.2145 2.5 15.834C2.5 14.9605 3.8438 14.1912 5.87988 13.7441C5.99768 13.8749 6.1165 14.0022 6.23633 14.125C6.79652 14.6992 7.39866 15.2073 7.99902 15.5801C8.57135 15.9354 9.27251 16.25 10 16.25C10.7275 16.25 11.4286 15.9354 12.001 15.5801C12.6013 15.2073 13.2035 14.6992 13.7637 14.125C13.8833 14.0023 14.0015 13.8748 14.1191 13.7441Z" fill="#777980"/>
</svg>
