<svg width="32" height="32" viewBox="0 0 32 32" fill="none" xmlns="http://www.w3.org/2000/svg">
<path d="M15.9988 5.68262C12.9032 5.68262 10.3848 8.20105 10.3848 11.2966C10.3848 14.3922 12.9032 16.9106 15.9988 16.9106C19.0943 16.9106 21.6128 14.3922 21.6128 11.2966C21.6128 8.20105 19.0943 5.68262 15.9988 5.68262ZM18.4246 10.4144L15.7782 13.0609C15.7203 13.1189 15.6515 13.1648 15.5758 13.1962C15.5002 13.2275 15.4191 13.2437 15.3371 13.2437C15.2552 13.2437 15.1741 13.2275 15.0984 13.1962C15.0228 13.1648 14.954 13.1189 14.8961 13.0609L13.5729 11.7377C13.3293 11.4941 13.3293 11.0991 13.5729 10.8556C13.8166 10.612 14.2115 10.612 14.4551 10.8556L15.3372 11.7377L17.5425 9.53231C17.6002 9.47311 17.669 9.42594 17.745 9.39356C17.821 9.36118 17.9027 9.34422 17.9853 9.34366C18.0679 9.34311 18.1498 9.35898 18.2263 9.39034C18.3027 9.4217 18.3722 9.46794 18.4306 9.52636C18.489 9.58478 18.5352 9.65423 18.5666 9.73067C18.598 9.80711 18.6138 9.88902 18.6133 9.97164C18.6127 10.0543 18.5958 10.1359 18.5634 10.212C18.531 10.288 18.4838 10.3568 18.4246 10.4144Z" fill="#0E93A1"/>
<path d="M18.6158 21.0601C18.8719 20.9915 19.2673 21.0525 19.6496 21.1115C20.2734 21.2076 20.9802 21.3166 21.584 20.9672C22.1961 20.613 22.4557 19.9407 22.6847 19.3474C22.8222 18.9913 22.9644 18.6231 23.1453 18.4422C23.3262 18.2613 23.6943 18.1192 24.0504 17.9817C24.6437 17.7527 25.316 17.4931 25.6702 16.8809C26.0197 16.277 25.9107 15.5702 25.8145 14.9465C25.7555 14.5643 25.6947 14.169 25.7632 13.9127C25.8262 13.6769 26.069 13.3761 26.3039 13.0853C26.7076 12.5855 27.1652 12.019 27.1652 11.2965C27.1652 10.574 26.7075 10.0075 26.3039 9.50761C26.069 9.21686 25.8262 8.91611 25.7631 8.6803C25.6946 8.42398 25.7555 8.0288 25.8145 7.64655C25.9107 7.02292 26.0197 6.31598 25.6703 5.71211C25.3161 5.09992 24.6437 4.84036 24.0504 4.6113C23.6944 4.47386 23.3261 4.33167 23.1453 4.1508C22.9644 3.96992 22.8222 3.60173 22.6848 3.24561C22.4558 2.65236 22.1962 1.97992 21.584 1.62573C20.98 1.27636 20.2732 1.38536 19.6495 1.48148C19.2674 1.54042 18.8722 1.60136 18.6157 1.53286C18.3799 1.4698 18.0792 1.22698 17.7884 0.992047C17.2886 0.588422 16.722 0.130859 15.9996 0.130859C15.2772 0.130859 14.7106 0.588422 14.2107 0.992109C13.9199 1.22698 13.6192 1.46986 13.3834 1.53286C13.1269 1.60142 12.7318 1.54042 12.3496 1.48148C11.726 1.38536 11.0191 1.2763 10.4152 1.62567C9.80305 1.97986 9.54348 2.65223 9.31442 3.24542C9.17692 3.60155 9.03473 3.9698 8.85386 4.15067C8.67298 4.33155 8.3048 4.47373 7.94873 4.61117C7.35548 4.84017 6.68311 5.0998 6.32892 5.71192C5.97948 6.3158 6.08848 7.02267 6.18467 7.6463C6.24361 8.02855 6.30448 8.4238 6.23598 8.68017C6.17298 8.91598 5.93011 9.21673 5.69523 9.50755C5.29155 10.0074 4.83398 10.5739 4.83398 11.2964C4.83398 12.0189 5.29155 12.5854 5.69523 13.0852C5.93011 13.376 6.17298 13.6767 6.23598 13.9125C6.30448 14.1689 6.24361 14.5641 6.18461 14.9463C6.08848 15.5699 5.97948 16.2769 6.32892 16.8807C6.68305 17.4928 7.35542 17.7524 7.94867 17.9814C8.3048 18.1189 8.67298 18.2611 8.85386 18.442C9.0348 18.6229 9.17692 18.991 9.31436 19.3471C9.54336 19.9404 9.80298 20.6127 10.4152 20.967C11.0191 21.3162 11.7259 21.2074 12.3495 21.1112C12.7318 21.0522 13.127 20.9912 13.3834 21.0599C13.6192 21.1229 13.9199 21.3657 14.2107 21.6006C14.7106 22.0043 15.2771 22.4619 15.9996 22.4619C16.7221 22.4619 17.2886 22.0043 17.7885 21.6006C18.0793 21.3659 18.3799 21.1231 18.6158 21.0601ZM9.13805 11.2965C9.13805 7.51298 12.2161 4.43492 15.9996 4.43492C19.7831 4.43492 22.8612 7.51298 22.8612 11.2965C22.8612 15.08 19.7831 18.158 15.9996 18.158C12.2161 18.158 9.13805 15.0799 9.13805 11.2965ZM13.0486 22.279C12.9151 22.2865 12.7178 22.3169 12.541 22.3442C12.206 22.3958 11.8279 22.4542 11.4152 22.4542C10.7957 22.4542 10.2643 22.321 9.79073 22.0472C9.67178 21.9784 9.55776 21.9014 9.44948 21.8169L5.72592 28.5192C5.66447 28.6298 5.63809 28.7564 5.65031 28.8823C5.66252 29.0082 5.71274 29.1275 5.7943 29.2242C5.87583 29.3209 5.98485 29.3906 6.1069 29.4239C6.22894 29.4572 6.35823 29.4526 6.47761 29.4107L9.0723 28.5011L9.42605 28.6977L10.0252 31.3814C10.0527 31.5048 10.1172 31.617 10.2099 31.703C10.3027 31.789 10.4194 31.8447 10.5446 31.8628C10.6698 31.8809 10.7975 31.8606 10.9109 31.8044C11.0242 31.7482 11.1178 31.6589 11.1792 31.5484L15.5531 23.6752C14.6164 23.5315 13.9138 22.9645 13.427 22.5715C13.3196 22.4847 13.1549 22.3516 13.0486 22.279ZM22.525 21.8357C22.4242 21.9128 22.3185 21.9834 22.2087 22.047C21.7353 22.3209 21.2039 22.4542 20.5842 22.4542C20.1718 22.4542 19.7937 22.3959 19.4601 22.3445C19.2819 22.317 19.0842 22.2866 18.9506 22.279C18.8444 22.3517 18.6797 22.4847 18.5724 22.5713C18.0798 22.9691 17.3664 23.545 16.4132 23.6803L20.7845 31.5484C20.846 31.6589 20.9396 31.7482 21.0529 31.8044C21.1662 31.8606 21.294 31.8809 21.4192 31.8628C21.5444 31.8447 21.6611 31.789 21.7538 31.703C21.8466 31.617 21.9111 31.5048 21.9386 31.3814L22.5377 28.6977L22.8915 28.5012L25.4861 29.4107C25.6055 29.4525 25.7347 29.4571 25.8567 29.4237C25.9788 29.3904 26.0877 29.3208 26.1693 29.2241C26.2508 29.1274 26.301 29.0082 26.3132 28.8823C26.3255 28.7564 26.2992 28.6298 26.2378 28.5192L22.525 21.8357Z" fill="#0E93A1"/>
</svg>
