<svg width="24" height="24" viewBox="0 0 24 24" fill="none" xmlns="http://www.w3.org/2000/svg">
<g clip-path="url(#clip0_6730_4183)">
<path d="M0.0764884 2.20116L1.67712 5.00207C1.70385 5.04891 1.73978 5.08985 1.78275 5.12244C1.82571 5.15502 1.87483 5.17858 1.92713 5.1917L3.42044 5.56504L8.54209 10.6867L9.10801 10.1209L3.90617 4.91927C3.855 4.86795 3.79081 4.83153 3.72051 4.81392L2.28569 4.45393L0.922927 2.06784L2.09126 0.899458L4.47833 2.26357L4.83849 3.69839C4.85599 3.7688 4.89235 3.8331 4.94367 3.88439L10.1455 9.08623L10.7112 8.52031L5.58961 3.39866L5.21626 1.90619C5.20316 1.85382 5.17961 1.80463 5.14702 1.76158C5.11444 1.71853 5.07349 1.68251 5.02664 1.65568L2.22556 0.0552113C2.1495 0.0119735 2.06136 -0.00514526 1.97465 0.00647603C1.88794 0.0180973 1.80742 0.0578181 1.74543 0.119557L0.145006 1.72019C0.0823981 1.78174 0.0417721 1.86217 0.0293903 1.94909C0.0170084 2.036 0.0335582 2.12458 0.0764884 2.20116ZM16.7122 7.88562L7.90934 16.6886L7.34342 16.1227L16.1465 7.31991L16.7122 7.88562ZM6.36867 17C6.3331 16.9408 6.28282 16.8918 6.2227 16.8578C6.16258 16.8238 6.09468 16.806 6.02562 16.806H3.62485C3.55582 16.806 3.48795 16.8238 3.42787 16.8578C3.36779 16.8918 3.31754 16.9408 3.28201 17L2.08153 19.0006C2.04413 19.0629 2.02437 19.1341 2.02437 19.2067C2.02437 19.2793 2.04413 19.3506 2.08153 19.4128L3.28201 21.4134C3.31757 21.4726 3.36782 21.5216 3.4279 21.5556C3.48797 21.5896 3.55582 21.6074 3.62485 21.6075H6.02562C6.09467 21.6074 6.16255 21.5896 6.22265 21.5556C6.28275 21.5216 6.33304 21.4726 6.36863 21.4134L7.56894 19.4128C7.60634 19.3506 7.6261 19.2793 7.6261 19.2067C7.6261 19.1341 7.60634 19.0629 7.56894 19.0006L6.36867 17ZM5.79929 20.8072H3.85135L2.89105 19.2068L3.85139 17.6062H5.79929L6.75959 19.2068L5.79929 20.8072Z" fill="#13C4D6"/>
<path d="M19.2298 9.60396C21.8725 9.61285 24.0222 7.47765 24.0311 4.83488C24.0324 4.43267 23.983 4.03189 23.8841 3.64202C23.8308 3.42754 23.6137 3.29699 23.3992 3.35034C23.3288 3.36794 23.2645 3.40429 23.2132 3.45552L20.7224 5.94464L18.7462 5.28606L18.0871 3.31035L20.5779 0.819072C20.628 0.768896 20.664 0.706285 20.6819 0.637658C20.6999 0.569031 20.6993 0.496855 20.6802 0.428528C20.6612 0.360201 20.6242 0.29818 20.5733 0.248821C20.5223 0.199462 20.4591 0.164541 20.3902 0.147636C17.8274 -0.501383 15.2238 1.04999 14.5748 3.61269C14.4762 4.00149 14.427 4.40116 14.4283 4.80227C14.4293 5.11734 14.4617 5.4314 14.5256 5.73985L5.76255 14.5028C5.4541 14.4392 5.14007 14.4066 4.82513 14.4055C2.17318 14.4055 0.0234375 16.5552 0.0234375 19.2072C0.0234375 21.859 2.17318 24.0087 4.82513 24.0087C7.47691 24.0087 9.62661 21.8589 9.62661 19.2072C9.62562 18.8922 9.59303 18.5781 9.52932 18.2696L11.6272 16.1717L12.5447 17.0892C12.6198 17.1642 12.7216 17.2064 12.8277 17.2064C12.9338 17.2064 13.0356 17.1642 13.1106 17.0892L13.3106 16.889C13.4861 16.7147 13.7697 16.7147 13.9451 16.889C14.1204 17.0638 14.1208 17.3476 13.946 17.5229L13.9451 17.5238L13.7452 17.7237C13.5889 17.8799 13.5889 18.1333 13.7452 18.2895L18.5184 23.0626C19.7738 24.3296 21.8185 24.3388 23.0854 23.0834C24.3522 21.8279 24.3615 19.7831 23.106 18.5163C23.0993 18.5094 23.0924 18.5025 23.0854 18.4955L18.3123 13.7225C18.1561 13.5663 17.9028 13.5663 17.7466 13.7225L17.5466 13.9225C17.3709 14.097 17.0875 14.097 16.9119 13.9225C16.7367 13.7477 16.7362 13.4639 16.911 13.2888C16.9114 13.2885 16.9117 13.2883 16.9119 13.2879L17.112 13.0878C17.2682 12.9316 17.2682 12.6783 17.112 12.5221L16.1945 11.6046L18.2924 9.50666C18.6008 9.57038 18.9149 9.60299 19.2298 9.604L19.2298 9.60396ZM20.8019 23.2085C20.5112 23.208 20.223 23.1554 19.9509 23.0533L23.0759 19.9281C23.5475 21.1826 22.913 22.5817 21.6585 23.0533C21.3846 23.1562 21.0945 23.2088 20.8019 23.2085ZM16.2689 12.809C15.8258 13.3375 15.8952 14.1253 16.4238 14.5683C16.8883 14.9575 17.5653 14.9572 18.0293 14.5671L22.5197 19.0615C22.5684 19.1103 22.614 19.1618 22.6581 19.2142L19.237 22.6353C19.184 22.5915 19.133 22.5453 19.0841 22.4969L14.5902 18.0027C15.0334 17.4742 14.9639 16.6864 14.4353 16.2434C13.9709 15.854 13.2936 15.8545 12.8297 16.2444L12.1895 15.6043L15.6286 12.1703L16.2689 12.809ZM17.8846 8.78457L8.80752 17.8598C8.7586 17.9087 8.72316 17.9694 8.70464 18.036C8.68612 18.1027 8.68515 18.1729 8.70184 18.2401C9.25078 20.3959 7.94811 22.5886 5.79213 23.1374C3.63632 23.6863 1.44363 22.3836 0.894653 20.2276C0.345882 18.0718 1.64851 15.8792 3.80453 15.3302C4.45668 15.1643 5.13999 15.1643 5.79213 15.3302C5.85924 15.3466 5.92944 15.3456 5.99601 15.3271C6.06258 15.3086 6.12329 15.2734 6.17234 15.2247L15.2473 6.14927C15.2962 6.1004 15.3316 6.0397 15.35 5.97309C15.3684 5.90648 15.3693 5.83622 15.3525 5.76918C14.8073 3.63857 16.0925 1.4694 18.2232 0.924082C18.6259 0.821108 19.0422 0.78178 19.457 0.807526L17.3463 2.91909C17.2938 2.97157 17.2569 3.03765 17.2398 3.10992C17.2227 3.18219 17.2261 3.2578 17.2495 3.32826L18.0497 5.72919C18.0694 5.78809 18.1026 5.84159 18.1465 5.88547C18.1905 5.92935 18.2441 5.96241 18.303 5.98202L20.7039 6.78232C20.7744 6.80578 20.8499 6.80918 20.9222 6.79215C20.9945 6.77511 21.0606 6.73831 21.1131 6.68586L23.2238 4.57514C23.2286 4.65075 23.231 4.7265 23.2311 4.80227C23.2423 7.00093 21.4692 8.79229 19.2705 8.80366C18.9307 8.80532 18.5919 8.7635 18.2627 8.67923C18.1956 8.66245 18.1253 8.66332 18.0587 8.68175C17.9921 8.70018 17.9314 8.73555 17.8825 8.78441H17.8846L17.8846 8.78457Z" fill="#13C4D6"/>
<path d="M20.7136 20.1242L20.1476 20.6902L16.1465 16.689L16.7122 16.123L20.7136 20.1242Z" fill="#13C4D6"/>
</g>
<defs>
<clipPath id="clip0_6730_4183">
<rect width="24" height="24" fill="white"/>
</clipPath>
</defs>
</svg>
