<svg width="32" height="32" viewBox="0 0 32 32" fill="none" xmlns="http://www.w3.org/2000/svg">
<path d="M21.625 7.49952H27.6382L20.6875 0.548828V6.56202C20.6875 7.07927 21.1077 7.49952 21.625 7.49952ZM16.9375 15.062H20.6875V16.937H16.9375V15.062ZM16.9375 18.812H20.6875V20.687H16.9375V18.812ZM11.3125 18.812H15.0625V20.687H11.3125V18.812ZM16.9375 22.562H20.6875V24.437H16.9375V22.562Z" fill="#0E93A1"/>
<path d="M6.625 32H25.375C26.9259 32 28.1875 30.7384 28.1875 29.1875V9.375H21.625C20.0741 9.375 18.8125 8.11337 18.8125 6.5625V0H6.625C5.07413 0 3.8125 1.26163 3.8125 2.8125V29.1875C3.8125 30.7384 5.07413 32 6.625 32ZM9.4375 14.125C9.4375 13.6068 9.85681 13.1875 10.375 13.1875H21.625C22.1432 13.1875 22.5625 13.6068 22.5625 14.125V25.375C22.5625 25.8932 22.1432 26.3125 21.625 26.3125H10.375C9.85681 26.3125 9.4375 25.8932 9.4375 25.375V14.125Z" fill="#0E93A1"/>
<path d="M11.3125 22.5625H15.0625V24.4375H11.3125V22.5625ZM11.3125 15.0625H15.0625V16.9375H11.3125V15.0625Z" fill="#0E93A1"/>
</svg>
