<svg width="32" height="32" viewBox="0 0 32 32" fill="none" xmlns="http://www.w3.org/2000/svg">
<path fill-rule="evenodd" clip-rule="evenodd" d="M17.6495 15.7635L30.0398 3.37312C30.4303 2.9826 30.4303 2.34943 30.0398 1.95891C29.6493 1.56838 29.0161 1.56838 28.6256 1.95891L24.6939 5.89054C22.3595 3.88087 19.3213 2.66602 15.9993 2.66602C8.63555 2.66602 2.66602 8.63555 2.66602 15.9993C2.66602 23.3631 8.63555 29.3327 15.9993 29.3327C23.3631 29.3327 29.3327 23.3631 29.3327 15.9993C29.3327 13.362 28.5669 10.9034 27.2456 8.83393L24.0693 12.0103C24.6647 13.2125 24.9993 14.5669 24.9993 15.9993C24.9993 20.9699 20.9699 24.9993 15.9993 24.9993C11.0288 24.9993 6.99935 20.9699 6.99935 15.9993C6.99935 11.0288 11.0288 6.99935 15.9993 6.99935C18.1244 6.99935 20.0774 7.73582 21.617 8.96745L20.1915 10.393C19.0229 9.51775 17.5717 8.99935 15.9993 8.99935C12.1334 8.99935 8.99935 12.1334 8.99935 15.9993C8.99935 19.8653 12.1334 22.9993 15.9993 22.9993C19.8653 22.9993 22.9993 19.8653 22.9993 15.9993C22.9993 15.1296 22.8407 14.297 22.5509 13.5287L19.6398 16.4397C19.4223 18.2571 17.8754 19.666 15.9993 19.666C13.9743 19.666 12.3327 18.0244 12.3327 15.9993C12.3327 13.9743 13.9743 12.3327 15.9993 12.3327C16.6485 12.3327 17.2583 12.5014 17.7872 12.7973L16.2352 14.3492C16.1582 14.3383 16.0794 14.3327 15.9993 14.3327C15.0789 14.3327 14.3327 15.0789 14.3327 15.9993C14.3327 16.9198 15.0789 17.666 15.9993 17.666C16.9198 17.666 17.666 16.9198 17.666 15.9993C17.666 15.9193 17.6604 15.8405 17.6495 15.7635Z" fill="#0E93A1"/>
</svg>
