<svg width="32" height="32" viewBox="0 0 32 32" fill="none" xmlns="http://www.w3.org/2000/svg">
<path d="M9.04199 4.66699C9.04212 7.24421 11.1317 9.33398 13.709 9.33398H19.042C21.5386 9.3339 23.577 7.37275 23.7021 4.90723L23.709 4.66699H24.375C26.5841 4.66699 28.375 6.45786 28.375 8.66699V24.667C28.3749 26.876 26.5841 28.667 24.375 28.667H8.375C6.16602 28.6669 4.37513 26.876 4.375 24.667V8.66699C4.37501 6.45792 6.16594 4.66708 8.375 4.66699H9.04199ZM11.708 22C10.972 22.0003 10.3752 22.5969 10.375 23.333C10.375 24.0692 10.9719 24.6667 11.708 24.667C12.4444 24.667 13.042 24.0694 13.042 23.333C13.0418 22.5968 12.4443 22 11.708 22ZM16.375 22.333C15.8229 22.3331 15.3752 22.7809 15.375 23.333C15.375 23.8852 15.8228 24.3329 16.375 24.333H21.709C22.261 24.3327 22.709 23.8851 22.709 23.333C22.7088 22.781 22.2609 22.3333 21.709 22.333H16.375ZM11.708 16.667C10.9719 16.6673 10.375 17.2638 10.375 18C10.375 18.7362 10.9719 19.3327 11.708 19.333C12.4444 19.333 13.042 18.7364 13.042 18C13.042 17.2636 12.4444 16.667 11.708 16.667ZM16.375 17C15.8228 17.0001 15.375 17.4478 15.375 18C15.375 18.5522 15.8228 18.9999 16.375 19H21.709C22.261 18.9997 22.709 18.5521 22.709 18C22.709 17.4479 22.261 17.0003 21.709 17H16.375ZM11.708 11.333C10.9719 11.3333 10.375 11.9308 10.375 12.667C10.3752 13.4031 10.972 13.9997 11.708 14C12.4443 14 13.0418 13.4032 13.042 12.667C13.042 11.9306 12.4444 11.333 11.708 11.333ZM16.375 11.667C15.8228 11.6671 15.375 12.1148 15.375 12.667C15.3752 13.2191 15.8229 13.6669 16.375 13.667H21.709C22.2609 13.6667 22.7088 13.219 22.709 12.667C22.709 12.1149 22.261 11.6673 21.709 11.667H16.375ZM19.042 2C20.5147 2.00009 21.709 3.19429 21.709 4.66699C21.7088 6.13955 20.5146 7.33292 19.042 7.33301H13.709C12.2363 7.33301 11.0422 6.1396 11.042 4.66699C11.042 3.1944 12.2355 2.00026 13.708 2H19.042Z" fill="#0E93A1"/>
</svg>
