<svg width="32" height="32" viewBox="0 0 32 32" fill="none" xmlns="http://www.w3.org/2000/svg">
<path fill-rule="evenodd" clip-rule="evenodd" d="M13.333 17.333C18.4877 17.333 22.667 19.7215 22.667 22.667C22.6667 25.6124 18.4875 28 13.333 28C8.17869 27.9999 4.00031 25.6123 4 22.667C4 19.7215 8.1785 17.3331 13.333 17.333ZM24 9.66699C24.5523 9.66699 25 10.1147 25 10.667V12.333H26.667C27.219 12.3332 27.6668 12.781 27.667 13.333C27.667 13.8852 27.2191 14.3328 26.667 14.333H25V16C25 16.5523 24.5523 17 24 17C23.4477 17 23 16.5523 23 16V14.333H21.333C20.7809 14.3328 20.333 13.8852 20.333 13.333C20.3332 12.781 20.781 12.3332 21.333 12.333H23V10.667C23 10.1147 23.4477 9.66699 24 9.66699ZM13.333 4C16.2784 4 18.6668 6.38764 18.667 9.33301C18.667 12.2785 16.2785 14.667 13.333 14.667C10.3876 14.6668 8 12.2784 8 9.33301C8.00018 6.38775 10.3877 4.00018 13.333 4Z" fill="#0E93A1"/>
</svg>
