<svg width="32" height="32" viewBox="0 0 32 32" fill="none" xmlns="http://www.w3.org/2000/svg">
<path d="M13 10.5999V4.40007C13 4.17873 13.1787 4 13.4001 4H18.5999C18.8213 4 19 4.17873 19 4.40007V10.5999C19 10.8213 18.8213 11 18.5999 11H13.4001C13.1787 11 13 10.8213 13 10.5999ZM28 13.4001V23.5C28 26.5 26.5 28 23.5 28H8.5C5.5 28 4 26.5 4 23.5V13.4001C4 13.1787 4.17873 13 4.40007 13H27.5999C27.8213 13 28 13.1787 28 13.4001ZM19.4414 18.3385L15.2427 15.7692C14.4067 15.2585 13.332 15.8573 13.332 16.8346V21.8307C13.332 22.8081 14.4067 23.4082 15.2427 22.8962L19.4414 20.3268C20.1867 19.8722 20.1867 18.7945 19.4414 18.3385ZM4.40007 11H10.5999C10.8213 11 11 10.8213 11 10.5999V4.40007C11 4.17873 10.8213 4 10.5999 4H8.5C5.5 4 4 5.5 4 8.5V10.5999C4 10.8213 4.17873 11 4.40007 11ZM23.5 4H21.4001C21.1787 4 21 4.17873 21 4.40007V10.5999C21 10.8213 21.1787 11 21.4001 11H27.5999C27.8213 11 28 10.8213 28 10.5999V8.5C28 5.5 26.5 4 23.5 4Z" fill="#0E93A1"/>
</svg>
